<svg width="40" height="40" viewBox="0 0 40 40" fill="none" xmlns="http://www.w3.org/2000/svg">
<g clipPath="url(#clip0_28_83)">
<path d="M27.5 10V29.1667C27.5 32.85 24.5167 35.8333 20.8334 35.8333C17.15 35.8333 14.1667 32.85 14.1667 29.1667V8.33334C14.1667 6.03334 16.0334 4.16667 18.3334 4.16667C20.6334 4.16667 22.5 6.03334 22.5 8.33334V25.8333C22.5 26.75 21.75 27.5 20.8334 27.5C19.9167 27.5 19.1667 26.75 19.1667 25.8333V10H16.6667V25.8333C16.6667 28.1333 18.5334 30 20.8334 30C23.1334 30 25 28.1333 25 25.8333V8.33334C25 4.65001 22.0167 1.66667 18.3334 1.66667C14.65 1.66667 11.6667 4.65001 11.6667 8.33334V29.1667C11.6667 34.2333 15.7667 38.3333 20.8334 38.3333C25.9 38.3333 30 34.2333 30 29.1667V10H27.5Z" fill="white"/>
</g>
<defs>
<clipPath id="clip0_28_83">
<rect width="40" height="40" fill="white"/>
</clipPath>
</defs>
</svg>
